<svg xmlns="http://www.w3.org/2000/svg" width="256" height="256" viewBox="0 0 256 256"><defs><style>.a{fill:#a63f38;}</style></defs><title>grain-right</title><path class="a" d="M85.4,248c0.8-.8,75.9-72.4,43.2-188l-3.5,1c31.9,113.1-41.5,183.5-42.2,184l2.5,3h0Zm37.9-43.7s29.2,7.5,39-23.6C162.6,180.9,131.7,174.1,123.4,204.3Zm50.5-66.1s-0.8,33.7-37.7,29.7C136.5,167.8,138.5,137.4,173.9,138.2Zm-32.7-9.5s29.2,4.5,32.9-38.2C174.2,90.4,138.7,88.7,141.2,128.6Zm-0.3-44s32.9-14.3,13.6-55.3C154.6,29.4,125.9,48.7,141,84.6ZM127.9,57s18.8-31.7-13.1-49C114.8,8,93.7,27.6,127.9,57ZM111.6,199.7s6.3-30.7-28.9-38.7C82.7,161.3,74.1,192.7,111.6,199.7Zm11.1-37.2s2.3-31.7-31.9-41.7C90.7,120.8,88.5,163.6,122.6,162.6Zm4.3-36.9S127.7,89.2,92,87.7C92.2,87.7,104,129.6,126.9,125.6Zm-3.3-41.2s1-28.4-31.4-33.7C92.2,50.5,92.7,82.4,123.6,84.4Z"/></svg>