<svg xmlns="http://www.w3.org/2000/svg" width="256" height="256" viewBox="0 0 256 256"><defs><style>.a{fill:#a63f38;}</style></defs><title>grain-left</title><path class="a" d="M170.2,246.6c-0.8-.7-76-72.5-43.3-187.9l3.6,1c-32,113.1,41.5,183.4,42.3,184.1ZM132,202.8s-29.1,7.4-39.1-23.6C92.9,179.3,123.7,172.5,132,202.8ZM81.4,136.6S82,170.4,119,166.3C119,166.3,116.9,136,81.4,136.6Zm32.9-9.6s-29.2,4.5-33.1-38.1C81.2,88.9,116.7,87.2,114.3,127Zm0.1-43.8S81.5,68.8,100.9,27.8C100.9,27.8,129.5,47.1,114.4,83.2Zm13.2-27.7s-18.9-31.7,13-48.9C140.6,6.6,161.9,26.1,127.7,55.5Zm16.3,142.8s-6.3-30.6,29.1-38.6C173,159.7,181.5,191.3,143.9,198.3Zm-11-37.2s-2.3-31.6,31.9-41.8C164.9,119.3,167,162,133,161.1Zm-4.5-36.9s-0.9-36.5,34.9-38C163.4,86.2,151.5,128,128.5,124.2Zm3.4-41.4S130.8,54.4,163.4,49C163.4,49,162.9,80.7,131.9,82.8Z"/></svg>